<svg width="64" height="64" viewBox="0 0 64 64" fill="none" xmlns="http://www.w3.org/2000/svg">
  <defs>
    <!-- Main gradient -->
    <linearGradient id="mainGradient" x1="0%" y1="0%" x2="100%" y2="100%">
      <stop offset="0%" stop-color="#4F46E5"/>
      <stop offset="50%" stop-color="#6366F1"/>
      <stop offset="100%" stop-color="#7C3AED"/>
    </linearGradient>
    
    <!-- Accent gradient -->
    <linearGradient id="accentGradient" x1="0%" y1="0%" x2="100%" y2="0%">
      <stop offset="0%" stop-color="#06B6D4"/>
      <stop offset="100%" stop-color="#3B82F6"/>
    </linearGradient>
    
    <!-- Shadow filter -->
    <filter id="shadow" x="-20%" y="-20%" width="140%" height="140%">
      <feDropShadow dx="0" dy="2" stdDeviation="4" flood-color="#4F46E5" flood-opacity="0.3"/>
    </filter>
  </defs>
  
  <!-- Background circle with gradient -->
  <circle cx="32" cy="32" r="28" fill="url(#mainGradient)" filter="url(#shadow)"/>
  
  <!-- Inner geometric pattern representing clarity/transparency -->
  <g transform="translate(16, 16)">
    <!-- Main C shape with modern styling - consistent with wordmark -->
    <path d="M16 4 C24 4 28 8 28 16 C28 24 24 28 16 28 C8 28 4 24 4 16 C4 8 8 4 16 4 Z M16 8 C12 8 8 12 8 16 C8 20 12 24 16 24 C20 24 24 20 24 16 C20 12 16 8 16 8 Z" 
          fill="white" 
          fill-rule="evenodd"/>
    
    <!-- Accent elements representing data flow - consistent with wordmark -->
    <circle cx="20" cy="12" r="1" fill="url(#accentGradient)"/>
    <circle cx="22" cy="14" r="0.75" fill="url(#accentGradient)"/>
    <circle cx="24" cy="16" r="0.5" fill="url(#accentGradient)"/>
  </g>
</svg>